<svg width="159" height="53" viewBox="0 0 159 53" fill="none" xmlns="http://www.w3.org/2000/svg">
<path d="M91.984 4.192C92.272 4.192 92.504 4.28 92.68 4.456C92.856 4.616 92.944 4.792 92.944 4.984C92.944 5.176 92.896 5.288 92.8 5.32C91.648 5.32 90.624 5.736 89.728 6.568C88.848 7.4 88.184 8.44 87.736 9.688C87.304 10.936 87.088 12.256 87.088 13.648C87.088 15.968 87.52 17.88 88.384 19.384C89.248 20.888 90.44 21.696 91.96 21.808C90.952 20.624 90.168 19.232 89.608 17.632C89.048 16.032 88.768 14.448 88.768 12.88C88.768 10.784 89.264 9.112 90.256 7.864C91.264 6.6 92.576 5.968 94.192 5.968C95.824 5.968 97.192 6.672 98.296 8.08C99.416 9.488 99.976 11.304 99.976 13.528C99.976 15.736 99.504 17.64 98.56 19.24C97.616 20.84 96.32 21.912 94.672 22.456C95.904 23.24 97.256 23.632 98.728 23.632C100.2 23.632 101.376 23.056 102.256 21.904C103.152 20.752 103.6 19.232 103.6 17.344C103.68 17.248 103.816 17.2 104.008 17.2C104.216 17.2 104.384 17.272 104.512 17.416C104.64 17.56 104.704 17.84 104.704 18.256C104.704 18.672 104.64 19.184 104.512 19.792C104.4 20.4 104.192 21.016 103.888 21.64C103.584 22.248 103.2 22.784 102.736 23.248C102.288 23.712 101.704 24.088 100.984 24.376C100.264 24.68 99.456 24.832 98.56 24.832C96.464 24.832 94.584 24.144 92.92 22.768C92.712 22.784 92.504 22.792 92.296 22.792C90.136 22.792 88.352 22 86.944 20.416C85.552 18.816 84.856 16.56 84.856 13.648C84.856 12.24 85.08 10.928 85.528 9.712C85.976 8.48 86.552 7.48 87.256 6.712C87.96 5.928 88.728 5.312 89.56 4.864C90.392 4.416 91.2 4.192 91.984 4.192ZM93.688 21.64C94.952 21.192 95.944 20.224 96.664 18.736C97.4 17.232 97.768 15.48 97.768 13.48C97.768 11.464 97.464 9.912 96.856 8.824C96.248 7.736 95.36 7.192 94.192 7.192C93.04 7.192 92.08 7.704 91.312 8.728C90.56 9.752 90.184 11.072 90.184 12.688C90.184 14.304 90.496 15.928 91.12 17.56C91.744 19.192 92.6 20.552 93.688 21.64ZM110.065 12.616C110.065 12.136 110.201 11.776 110.473 11.536C110.745 11.28 111.073 11.152 111.457 11.152C111.841 11.152 112.145 11.264 112.369 11.488V18.376C112.369 19.288 112.513 19.976 112.801 20.44C113.089 20.904 113.481 21.136 113.977 21.136C114.473 21.136 114.953 20.848 115.417 20.272C115.961 19.584 116.233 18.312 116.233 16.456C116.249 16.36 116.369 16.312 116.593 16.312C116.881 16.312 117.025 16.736 117.025 17.584C117.025 18.944 116.729 20.032 116.137 20.848C115.561 21.664 114.745 22.072 113.689 22.072C112.009 22.072 110.905 21.312 110.377 19.792C109.753 21.312 108.609 22.072 106.945 22.072C105.953 22.072 105.153 21.776 104.545 21.184C103.937 20.576 103.633 19.712 103.633 18.592V12.616C103.633 12.136 103.753 11.776 103.993 11.536C104.233 11.28 104.537 11.152 104.905 11.152C105.273 11.152 105.569 11.264 105.793 11.488V18.376C105.793 20.28 106.273 21.232 107.233 21.232C107.953 21.232 108.601 20.8 109.177 19.936C109.769 19.072 110.065 17.856 110.065 16.288V12.616ZM126.346 16.6C126.682 16.6 126.85 16.856 126.85 17.368C126.85 18.552 126.434 19.632 125.602 20.608C124.786 21.584 123.538 22.072 121.858 22.072C120.178 22.072 118.826 21.624 117.802 20.728C116.794 19.816 116.29 18.488 116.29 16.744C116.29 14.984 116.738 13.616 117.634 12.64C118.53 11.648 119.674 11.152 121.066 11.152C122.074 11.152 122.81 11.424 123.274 11.968C123.738 12.496 123.97 13.128 123.97 13.864C123.97 15.064 123.466 16.064 122.458 16.864C121.466 17.648 120.194 18.04 118.642 18.04C118.786 19.064 119.154 19.84 119.746 20.368C120.354 20.88 121.146 21.136 122.122 21.136C123.114 21.136 124.002 20.768 124.786 20.032C125.586 19.28 125.986 18.184 125.986 16.744C126.002 16.648 126.122 16.6 126.346 16.6ZM118.57 16.936V17.152C119.562 17.024 120.418 16.712 121.138 16.216C121.874 15.72 122.242 14.984 122.242 14.008C122.242 13.384 122.106 12.912 121.834 12.592C121.562 12.256 121.178 12.088 120.682 12.088C119.93 12.088 119.386 12.456 119.05 13.192C118.73 13.928 118.57 15.176 118.57 16.936ZM136.119 16.6C136.455 16.6 136.623 16.856 136.623 17.368C136.623 18.552 136.207 19.632 135.375 20.608C134.559 21.584 133.311 22.072 131.631 22.072C129.951 22.072 128.599 21.624 127.575 20.728C126.567 19.816 126.063 18.488 126.063 16.744C126.063 14.984 126.511 13.616 127.407 12.64C128.303 11.648 129.447 11.152 130.839 11.152C131.847 11.152 132.583 11.424 133.047 11.968C133.511 12.496 133.743 13.128 133.743 13.864C133.743 15.064 133.239 16.064 132.231 16.864C131.239 17.648 129.967 18.04 128.415 18.04C128.559 19.064 128.927 19.84 129.519 20.368C130.127 20.88 130.919 21.136 131.895 21.136C132.887 21.136 133.775 20.768 134.559 20.032C135.359 19.28 135.759 18.184 135.759 16.744C135.775 16.648 135.895 16.6 136.119 16.6ZM128.343 16.936V17.152C129.335 17.024 130.191 16.712 130.911 16.216C131.647 15.72 132.015 14.984 132.015 14.008C132.015 13.384 131.879 12.912 131.607 12.592C131.335 12.256 130.951 12.088 130.455 12.088C129.703 12.088 129.159 12.456 128.823 13.192C128.503 13.928 128.343 15.176 128.343 16.936ZM148.797 16.312C149.085 16.312 149.229 16.736 149.229 17.584C149.229 18.944 148.933 20.032 148.341 20.848C147.765 21.664 146.917 22.072 145.797 22.072C144.677 22.072 143.813 21.688 143.205 20.92C142.613 20.152 142.317 19.064 142.317 17.656V14.848C142.317 12.944 141.837 11.992 140.877 11.992C140.029 11.992 139.333 12.424 138.789 13.288C138.245 14.152 137.973 15.6 137.973 17.632V21.736C137.813 21.96 137.533 22.072 137.133 22.072C136.733 22.072 136.413 21.952 136.173 21.712C135.933 21.456 135.812 21.088 135.812 20.608V11.488C135.973 11.264 136.277 11.152 136.725 11.152C137.557 11.152 137.973 11.752 137.973 12.952C138.645 11.752 139.709 11.152 141.165 11.152C142.205 11.152 143.029 11.48 143.637 12.136C144.261 12.792 144.573 13.736 144.573 14.968V18.376C144.573 19.288 144.717 19.976 145.005 20.44C145.293 20.904 145.717 21.136 146.277 21.136C146.853 21.136 147.357 20.784 147.789 20.08C148.221 19.36 148.437 18.152 148.437 16.456C148.453 16.36 148.573 16.312 148.797 16.312ZM152.932 17.176C152.292 16.952 151.652 16.72 151.012 16.48C150.388 16.224 149.86 15.864 149.428 15.4C148.996 14.936 148.78 14.344 148.78 13.624C148.78 12.888 149.116 12.296 149.788 11.848C150.46 11.384 151.436 11.152 152.716 11.152C154.012 11.152 155.02 11.376 155.74 11.824C156.476 12.272 156.844 12.792 156.844 13.384C156.844 13.672 156.732 13.904 156.508 14.08C156.3 14.256 156.092 14.344 155.884 14.344C155.484 14.344 155.22 14.248 155.092 14.056C155.188 13.944 155.236 13.728 155.236 13.408C155.236 13.072 154.988 12.768 154.492 12.496C153.996 12.224 153.444 12.088 152.836 12.088C152.228 12.088 151.724 12.2 151.324 12.424C150.924 12.648 150.724 12.992 150.724 13.456C150.724 13.904 150.948 14.296 151.396 14.632C151.86 14.968 152.412 15.248 153.052 15.472C153.708 15.696 154.356 15.936 154.996 16.192C155.652 16.448 156.204 16.816 156.652 17.296C157.116 17.76 157.348 18.336 157.348 19.024C157.348 20.048 156.9 20.816 156.004 21.328C155.124 21.824 153.956 22.072 152.5 22.072C151.06 22.072 149.884 21.656 148.972 20.824C148.076 19.976 147.628 18.928 147.628 17.68C147.628 17.232 147.716 16.88 147.892 16.624C148.068 16.368 148.268 16.24 148.492 16.24C148.908 16.24 149.148 16.312 149.212 16.456L149.26 16.528C149.164 16.768 149.116 17.064 149.116 17.416C149.116 18.488 149.428 19.376 150.052 20.08C150.676 20.784 151.54 21.136 152.644 21.136C154.34 21.136 155.196 20.536 155.212 19.336C155.212 18.424 154.452 17.704 152.932 17.176ZM96.664 32.328C96.664 31.848 96.784 31.488 97.024 31.248C97.264 30.992 97.552 30.864 97.888 30.864C98.24 30.864 98.576 30.976 98.896 31.2V44.232C98.896 45.16 99.08 45.904 99.448 46.464C99.832 47.024 100.328 47.304 100.936 47.304C102.44 47.304 103.192 45.8 103.192 42.792C103.208 42.696 103.288 42.648 103.432 42.648C103.592 42.648 103.712 42.672 103.792 42.72C104.032 42.896 104.152 43.288 104.152 43.896C104.152 45.24 103.832 46.328 103.192 47.16C102.552 47.992 101.704 48.408 100.648 48.408C98.616 48.408 97.376 47.352 96.928 45.24C96.592 46.36 96.016 47.256 95.2 47.928C94.4 48.6 93.448 48.936 92.344 48.936C90.696 48.92 89.464 48.304 88.648 47.088C87.832 45.872 87.424 44.232 87.424 42.168V34.56C87.424 33.632 87.232 32.888 86.848 32.328C86.48 31.768 85.968 31.488 85.312 31.488C84.672 31.488 84.16 31.752 83.776 32.28C83.376 32.792 83.176 33.712 83.176 35.04C83.176 35.328 83.24 35.616 83.368 35.904C83.224 36.096 82.984 36.192 82.648 36.192C82.312 36.192 82.032 36.072 81.808 35.832C81.568 35.592 81.448 35.2 81.448 34.656C81.448 33.392 81.832 32.368 82.6 31.584C83.368 30.784 84.392 30.384 85.672 30.384C87.192 30.384 88.232 30.92 88.792 31.992C89.304 32.936 89.56 34.272 89.56 36V42.072C89.56 45.848 90.488 47.736 92.344 47.736C93.672 47.736 94.72 47.104 95.488 45.84C96.272 44.576 96.664 42.96 96.664 40.992V32.328ZM116.054 42.312C116.342 42.312 116.486 42.736 116.486 43.584C116.486 44.944 116.19 46.032 115.598 46.848C115.022 47.664 114.174 48.072 113.054 48.072C111.934 48.072 111.07 47.688 110.462 46.92C109.87 46.152 109.574 45.064 109.574 43.656V40.848C109.574 38.944 109.094 37.992 108.134 37.992C107.286 37.992 106.59 38.424 106.046 39.288C105.502 40.152 105.23 41.6 105.23 43.632V47.736C105.07 47.96 104.79 48.072 104.39 48.072C103.99 48.072 103.67 47.952 103.43 47.712C103.19 47.456 103.07 47.088 103.07 46.608V37.488C103.23 37.264 103.534 37.152 103.982 37.152C104.814 37.152 105.23 37.752 105.23 38.952C105.902 37.752 106.966 37.152 108.422 37.152C109.462 37.152 110.286 37.48 110.894 38.136C111.518 38.792 111.83 39.736 111.83 40.968V44.376C111.83 45.288 111.974 45.976 112.262 46.44C112.55 46.904 112.974 47.136 113.534 47.136C114.11 47.136 114.614 46.784 115.046 46.08C115.478 45.36 115.694 44.152 115.694 42.456C115.71 42.36 115.83 42.312 116.054 42.312ZM115.918 34.8C115.646 34.528 115.51 34.192 115.51 33.792C115.51 33.392 115.646 33.056 115.918 32.784C116.19 32.496 116.526 32.352 116.926 32.352C117.326 32.352 117.662 32.496 117.934 32.784C118.222 33.056 118.366 33.392 118.366 33.792C118.366 34.192 118.222 34.528 117.934 34.8C117.662 35.072 117.326 35.208 116.926 35.208C116.526 35.208 116.19 35.072 115.918 34.8ZM115.822 38.616C115.822 38.136 115.942 37.776 116.182 37.536C116.422 37.28 116.726 37.152 117.094 37.152C117.462 37.152 117.758 37.264 117.982 37.488V44.376C117.982 45.288 118.158 45.976 118.51 46.44C118.862 46.904 119.342 47.136 119.95 47.136C120.558 47.136 121.126 46.768 121.654 46.032C122.182 45.296 122.446 44.104 122.446 42.456C122.478 42.36 122.598 42.312 122.806 42.312C123.094 42.312 123.238 42.736 123.238 43.584C123.238 44.816 122.902 45.872 122.23 46.752C121.558 47.632 120.702 48.072 119.662 48.072C118.366 48.072 117.398 47.688 116.758 46.92C116.134 46.152 115.822 45.064 115.822 43.656V38.616ZM122.5 35.064C122.5 34.584 122.62 34.224 122.86 33.984C123.1 33.728 123.404 33.6 123.772 33.6C124.14 33.6 124.436 33.712 124.66 33.936V37.488H127.948C128.284 37.488 128.5 37.552 128.596 37.68C128.708 37.808 128.764 38.024 128.764 38.328H124.66V44.376C124.66 45.256 124.908 45.936 125.404 46.416C125.916 46.896 126.5 47.136 127.156 47.136C128.148 47.136 128.876 46.768 129.34 46.032C129.804 45.296 130.036 44.104 130.036 42.456C130.068 42.36 130.188 42.312 130.396 42.312C130.684 42.312 130.828 42.736 130.828 43.584C130.828 44.88 130.5 45.952 129.844 46.8C129.204 47.648 128.212 48.072 126.868 48.072C125.524 48.072 124.46 47.72 123.676 47.016C122.892 46.312 122.5 45.264 122.5 43.872V35.064ZM140.174 42.6C140.51 42.6 140.678 42.856 140.678 43.368C140.678 44.552 140.262 45.632 139.43 46.608C138.614 47.584 137.366 48.072 135.686 48.072C134.006 48.072 132.654 47.624 131.63 46.728C130.622 45.816 130.118 44.488 130.118 42.744C130.118 40.984 130.566 39.616 131.462 38.64C132.358 37.648 133.502 37.152 134.894 37.152C135.902 37.152 136.638 37.424 137.102 37.968C137.566 38.496 137.798 39.128 137.798 39.864C137.798 41.064 137.294 42.064 136.286 42.864C135.294 43.648 134.022 44.04 132.47 44.04C132.614 45.064 132.982 45.84 133.574 46.368C134.182 46.88 134.974 47.136 135.95 47.136C136.942 47.136 137.83 46.768 138.614 46.032C139.414 45.28 139.814 44.184 139.814 42.744C139.83 42.648 139.95 42.6 140.174 42.6ZM132.398 42.936V43.152C133.39 43.024 134.246 42.712 134.966 42.216C135.702 41.72 136.07 40.984 136.07 40.008C136.07 39.384 135.934 38.912 135.662 38.592C135.39 38.256 135.006 38.088 134.51 38.088C133.758 38.088 133.214 38.456 132.878 39.192C132.558 39.928 132.398 41.176 132.398 42.936Z" fill="white"/>
<path d="M71.993 12.9234C71.5997 14.3377 70.8463 15.4232 69.4479 15.9907C69.2975 16.0508 69.1682 16.3159 69.1367 16.5033C68.6636 19.306 68.2027 22.1121 67.754 24.9218C67.7397 25.151 67.7979 25.3788 67.9201 25.5724C69.8429 28.8358 69.8691 32.1647 68.2173 35.5236C68.0006 35.9726 67.6913 36.3693 67.3102 36.6871C66.929 37.0049 66.4849 37.2363 66.0078 37.3657C65.8225 37.4205 65.6354 37.7546 65.5952 37.9862C65.0988 40.8713 64.6303 43.7635 64.1496 46.6486C63.9888 47.6121 63.5588 47.9922 62.6078 47.9922C56.6098 47.9922 50.6129 47.9922 44.6171 47.9922C43.6697 47.9922 43.0719 47.4619 43.0754 46.6663C43.0789 45.8708 43.6732 45.3493 44.6259 45.3493C50.0576 45.3493 55.4875 45.3493 60.9158 45.3493H61.7163C61.8649 44.4459 62.003 43.6062 62.1464 42.7311H14.843L15.2695 45.3493H16.0561C21.4645 45.3493 26.8711 45.3493 32.2795 45.3616C32.6659 45.3589 33.0464 45.457 33.3843 45.6463C33.8493 45.9309 34.0101 46.4347 33.872 46.9792C33.8148 47.2404 33.6785 47.4769 33.482 47.656C33.2855 47.835 33.0387 47.9476 32.776 47.9781C32.602 47.9991 32.4266 48.005 32.2516 47.9957H14.5248C13.3903 47.9957 13.0128 47.6793 12.8205 46.5337C12.3427 43.6887 11.8766 40.8424 11.4221 37.995C11.3591 37.6026 11.235 37.3834 10.8207 37.2879C9.92401 37.0616 9.32268 36.4199 8.83848 35.6615C7.15513 33.0221 7.23903 28.2984 8.97832 25.6926C9.15816 25.4082 9.23478 25.0696 9.19508 24.7344C8.77555 21.9931 8.32747 19.2553 7.85084 16.521C7.8054 16.27 7.50124 15.9907 7.26001 15.8634C5.4543 14.9565 4.57679 12.9323 5.19909 11.0265C5.8074 9.16853 7.70751 7.99999 9.56916 8.34472C10.5247 8.50618 11.3874 9.0192 11.9915 9.78513C12.5955 10.5511 12.8983 11.5158 12.8415 12.4939C12.7855 13.5051 12.366 14.3589 11.6178 15.1651L18.8092 20.1486L21.0817 13.2629C18.6694 11.3589 18.1834 9.09429 19.7357 7.12667C20.3867 6.31022 21.3309 5.78771 22.3617 5.67342C23.3926 5.55912 24.4263 5.86234 25.2367 6.51677C26.6544 7.63935 27.5511 10.185 25.5164 12.5062L32.6344 17.3059L36.522 10.4361C35.2984 9.58044 34.559 8.44018 34.573 6.90039C34.574 6.38025 34.6803 5.86583 34.8854 5.38881C35.0904 4.91178 35.3898 4.48224 35.7651 4.12664C36.1366 3.75971 36.5765 3.4712 37.0593 3.2779C37.542 3.08461 38.058 2.99041 38.5772 3.00077C39.0963 3.01114 39.6082 3.12587 40.0831 3.33828C40.5579 3.55069 40.9862 3.85654 41.3431 4.23801C43.0387 6.06066 42.7415 8.373 40.4865 10.4661L44.3549 17.3077L51.4554 12.5168C49.7686 10.2345 49.9469 7.85326 51.8749 6.42307C52.2928 6.11165 52.7677 5.88731 53.272 5.7631C53.7763 5.63888 54.3 5.61727 54.8127 5.69951C55.3253 5.78176 55.8167 5.96621 56.2582 6.24217C56.6998 6.51813 57.0827 6.88008 57.3847 7.30699C58.4563 8.79022 58.6573 11.5498 55.8989 13.2346C56.6488 15.5063 57.4022 17.7921 58.1818 20.1575L65.368 15.1774C64.4136 14.1167 63.9521 12.9394 64.2143 11.5587C64.3699 10.6824 64.8125 9.88456 65.471 9.29364C66.1294 8.70271 66.9653 8.35308 67.8441 8.30103C68.7229 8.24897 69.5935 8.49753 70.3157 9.00668C71.0378 9.51583 71.5695 10.2559 71.8252 11.1079C71.8776 11.274 71.9371 11.4384 72 11.6046L71.993 12.9234ZM38.506 12.3012C38.3207 12.6176 38.1966 12.8191 38.0795 13.026L29.3866 28.4062C28.6873 29.6331 28.0685 29.7728 26.9009 28.9631C22.5308 25.9377 18.1607 22.9118 13.7906 19.8852L10.7194 17.7638C11.069 19.9135 11.4011 21.9288 11.7524 23.9371C11.7734 24.0573 11.9692 24.2023 12.1021 24.2377C12.5927 24.3614 13.0494 24.5956 13.4381 24.9229C13.8267 25.2501 14.1373 25.6619 14.3465 26.1275C15.946 29.474 15.9197 32.7887 13.9969 36.0274C13.92 36.1547 13.7819 36.3032 13.7994 36.4234C13.9742 37.6326 14.1892 38.8383 14.3885 40.0351H62.5939C62.7949 38.8454 62.9994 37.6768 63.1812 36.4994C63.1789 36.3495 63.1286 36.2043 63.0379 36.0858C61.143 33.1193 61.115 29.9938 62.3037 26.7904C62.6865 25.758 63.314 24.8104 64.3856 24.4551C65.125 24.2076 65.312 23.7957 65.4064 23.1133C65.6512 21.372 65.9623 19.6395 66.2647 17.7832C65.9745 17.9795 65.7788 18.1103 65.5847 18.2447C60.4059 21.8251 55.2271 25.4062 50.0483 28.9879C48.9278 29.7622 48.3002 29.6119 47.6133 28.4062C46.0121 25.5777 44.412 22.7491 42.8132 19.9206C41.399 17.4155 39.9831 14.914 38.506 12.3012ZM55.9339 21.7132C55.1158 19.2382 54.3134 16.8056 53.4954 14.3289L45.6572 19.6183C46.9071 21.8316 48.1429 24.0149 49.3997 26.2371L55.9339 21.7132ZM27.5983 26.2353L31.3409 19.6183L23.4957 14.3324C22.7038 16.7385 21.9225 19.0738 21.1761 21.4144C21.1618 21.5004 21.1686 21.5886 21.1961 21.6712C21.2235 21.7539 21.2707 21.8284 21.3334 21.8882C23.3891 23.3307 25.4517 24.745 27.5983 26.2353ZM12.8659 30.8335L13.0285 30.7875C12.7576 29.7268 12.5181 28.6661 12.1947 27.6266C12.1038 27.3332 11.7682 27.1157 11.5444 26.8629C11.3329 27.1016 11.041 27.3049 10.9204 27.5824C9.95897 29.7816 9.99568 31.9897 10.999 34.1641C11.3486 34.9031 11.665 34.8978 12.0741 34.2012C12.6719 33.1635 12.8152 32.0091 12.8659 30.8335ZM65.4816 34.7546C67.4044 33.1423 66.9552 27.4357 65.3977 26.847C63.6532 28.2365 63.8105 33.7168 65.4816 34.7546ZM39.8013 6.95873C39.7996 6.69926 39.7222 6.44609 39.5788 6.23089C39.4355 6.0157 39.2325 5.84806 38.9954 5.74895C38.7583 5.64984 38.4976 5.62367 38.2458 5.67372C37.9941 5.72376 37.7625 5.8478 37.5801 6.0303C37.3978 6.2128 37.2727 6.44565 37.2205 6.69971C37.1684 6.95376 37.1915 7.21773 37.2869 7.45856C37.3824 7.6994 37.546 7.9064 37.7573 8.05365C37.9685 8.2009 38.218 8.28185 38.4746 8.28638C38.8244 8.28779 39.1606 8.14882 39.4093 7.89993C39.658 7.65105 39.799 7.31257 39.8013 6.95873ZM22.8297 10.9328C23.089 10.9277 23.3409 10.8444 23.5531 10.6937C23.7654 10.543 23.9284 10.3317 24.0213 10.0869C24.1142 9.84203 24.1329 9.57471 24.0748 9.31909C24.0168 9.06347 23.8847 8.83116 23.6954 8.65185C23.5062 8.47254 23.2684 8.35437 23.0124 8.31244C22.7564 8.27051 22.4938 8.30673 22.2583 8.41647C22.0227 8.52621 21.8249 8.70448 21.69 8.92851C21.5552 9.15253 21.4894 9.41213 21.5012 9.67414C21.5209 10.0162 21.6697 10.3375 21.917 10.5717C22.1642 10.806 22.4909 10.9352 22.8297 10.9328ZM54.2225 8.30406C53.9633 8.29914 53.7084 8.37251 53.4906 8.5148C53.2728 8.65708 53.1018 8.86182 52.9996 9.10285C52.8974 9.34387 52.8686 9.61025 52.9168 9.86793C52.9651 10.1256 53.0882 10.3629 53.2704 10.5495C53.4526 10.736 53.6857 10.8634 53.9399 10.9153C54.1941 10.9673 54.4578 10.9414 54.6974 10.841C54.9369 10.7405 55.1415 10.5702 55.2848 10.3516C55.4281 10.1331 55.5038 9.87628 55.5021 9.61403C55.4964 9.27114 55.3602 8.94366 55.1219 8.69969C54.8836 8.45571 54.5615 8.31402 54.2225 8.30406ZM10.2282 12.2888C10.2334 12.0293 10.1629 11.7741 10.0254 11.555C9.88786 11.336 9.68951 11.1628 9.45514 11.0572C9.22077 10.9515 8.9608 10.9182 8.70779 10.9613C8.45477 11.0044 8.21995 11.1221 8.03273 11.2995C7.84551 11.4769 7.7142 11.7063 7.65526 11.9588C7.59631 12.2114 7.61234 12.4759 7.70134 12.7193C7.79035 12.9626 7.94836 13.1741 8.15561 13.327C8.36286 13.48 8.61012 13.5678 8.86645 13.5793C9.21623 13.5907 9.55618 13.4612 9.81154 13.2192C10.0669 12.9772 10.2168 12.6425 10.2282 12.2888ZM69.371 12.2587C69.3706 11.9993 69.2945 11.7457 69.1522 11.5297C69.01 11.3138 68.808 11.1451 68.5714 11.0447C68.3348 10.9443 68.0742 10.9168 67.8222 10.9655C67.5702 11.0142 67.338 11.137 67.1547 11.3185C66.9713 11.5 66.845 11.7322 66.7916 11.9859C66.7381 12.2397 66.7598 12.5038 66.854 12.7451C66.9482 12.9865 67.1107 13.1943 67.3212 13.3427C67.5317 13.4911 67.7807 13.5734 68.0372 13.5793C68.2106 13.5814 68.3827 13.5489 68.5436 13.4836C68.7045 13.4183 68.8512 13.3216 68.9751 13.1989C69.099 13.0763 69.1977 12.9301 69.2656 12.7687C69.3336 12.6074 69.3694 12.4341 69.371 12.2587Z" fill="white"/>
<path d="M35.0051 31.459C35.0129 30.2 35.2294 28.9808 35.8399 27.8467C35.9472 27.6513 36.069 27.4633 36.2043 27.2841C37.4814 25.5801 39.5263 25.5639 40.7769 27.2841C41.9076 28.8412 42.1583 30.6231 41.9154 32.4403C41.7892 33.3848 41.4232 34.3103 41.0806 35.2152C40.9389 35.5942 40.6134 35.935 40.3019 36.2288C39.2195 37.2571 37.7617 37.2571 36.6809 36.2288C35.4568 35.0624 35.1344 33.5626 35.0067 32.0025C34.9926 31.8262 35.0051 31.6426 35.0051 31.459ZM38.5171 34.7965C40.1415 33.542 39.9032 28.9822 38.4984 28.2213C36.9752 29.0645 36.9316 33.8446 38.5171 34.7965Z" fill="white"/>
</svg>
